# xmcd
#
# Track frame offsets: 
#        150
#        19810
#        37674
#        53737
#        74544
#        93541
#        115326
#        132241
#        150567
#        169212
#        178572
#        188947
#
# Disc length: 2734 seconds
#
# Revision: 4
# Processed by: cddbd v1.5.2PL0 Copyright (c) Steve Scherf et al.
# Submitted via: ExactAudioCopy v1.2
#
DISCID=9d0aac0c
DTITLE=Kathy Mattea - Roses
DYEAR=2002
DGENRE=Country
TTITLE0=That's All The Lumber You Sent
TTITLE1=They Are The Roses
TTITLE2=Guns Of Love
TTITLE3=Ashes In The Wind
TTITLE4=I'm Alright
TTITLE5=Till I Turn To You
TTITLE6=Come Away With Me
TTITLE7=Who We Are
TTITLE8=Junkyard
TTITLE9=Isle Of Inishmore Part 1 (Air)
TTITLE10=Isle Of Inishmore Part 2 (Jig)
TTITLE11=The Slender Threads That Bind Us Here
EXTD=
EXTT0=
EXTT1=
EXTT2=
EXTT3=
EXTT4=
EXTT5=
EXTT6=
EXTT7=
EXTT8=
EXTT9=
EXTT10=
EXTT11=
PLAYORDER=
